<svg id="a" xmlns="http://www.w3.org/2000/svg" xmlns:xlink="http://www.w3.org/1999/xlink" viewBox="0 0 530.19 147.18"><defs><linearGradient id="b" x1="85.92" y1="1.46" x2="85.92" y2="147.69" gradientUnits="userSpaceOnUse"><stop offset="0" stop-color="#093687"/><stop offset=".35" stop-color="#1062a2"/><stop offset="1" stop-color="#1eb0d2"/></linearGradient><linearGradient id="c" x1="-29.53" y1="242.72" x2="74.99" y2="138.2" gradientUnits="userSpaceOnUse"><stop offset="0" stop-color="#f8cde0"/><stop offset=".51" stop-color="#1a469b"/><stop offset=".64" stop-color="#1b61a9"/><stop offset="1" stop-color="#1eb0d2"/></linearGradient><linearGradient id="d" x1="-72.63" y1="199.63" x2="31.89" y2="95.11" xlink:href="#c"/><linearGradient id="e" x1="-51.52" y1="220.74" x2="53" y2="116.22" xlink:href="#c"/><linearGradient id="f" x1="-50.82" y1="221.44" x2="53.7" y2="116.92" xlink:href="#c"/><linearGradient id="g" x1="-92.81" y1="179.45" x2="11.71" y2="74.93" xlink:href="#c"/><linearGradient id="h" x1="150.45" y1="117.5" x2="150.45" y2="50.91" gradientUnits="userSpaceOnUse"><stop offset="0" stop-color="#40b2e7"/><stop offset="1" stop-color="#009acd"/></linearGradient><linearGradient id="i" x1="267.17" y1="-52.61" x2="267.17" y2="46.26" xlink:href="#c"/><linearGradient id="j" x1="306.31" y1="-52.61" x2="306.31" y2="46.26" xlink:href="#c"/><linearGradient id="k" x1="348.72" y1="-52.61" x2="348.72" y2="46.26" xlink:href="#c"/><style>.o{fill:#093687}.u{fill:#0f308e}</style></defs><path d="M65.44 106.21c22.41 0 40.63-18.09 40.79-40.5l.18-24.75h36.74V0H28.71v40.96h36.74v64.92" style="fill:url(#b)"/><path style="fill:url(#c)" d="M65.44 131.62v15.08h22.5v-20.41h-22.5v5.33z"/><path style="fill:url(#d)" d="M21.81 105.88H0v20.41h21.81v-20.41z"/><path style="fill:url(#e)" d="M21.81 131.62v15.08h21.82v-20.41H21.81v5.33z"/><path style="fill:url(#f)" d="M43.63 110.81v15.48h21.81v-20.41H43.63v4.93z"/><path style="fill:url(#g)" d="M21.81 65.73H0V85.74h21.81V65.73z"/><path d="M157.7 73.59c25.25 0 44.56-25.44 33.7-52.09C185.95 8.12 172.15 0 157.7 0h-.58v106.21h-9.75c-22.62 0-40.97 18.34-40.97 40.97h51.3c14.44 0 28.25-8.13 33.7-21.5 10.86-26.65-8.45-52.09-33.7-52.09Z" style="fill:url(#h)"/><path class="o" d="M266.48 116.52v3.01h-8.29v12.82h-3.71v-15.82h12Zm-9.86 14.68c2.49 0 4.57-.04 6.25-.15 1.68-.11 3.35-.32 5.02-.62l.38 2.97c-1.72.33-3.44.56-5.16.67-1.72.11-3.88.17-6.49.16h-2.14v-3.03h2.14Zm16.73-7.89v3.01h-8.17v-3.01h8.17Zm2.1-9.12v26.39h-3.68v-26.39h3.68ZM302.83 124.93v2.87h-24v-2.87h24Zm-2.93 4.41v6.65h-14.66v2.45h-3.62v-5.01h14.64v-1.39H281.6v-2.7h18.3Zm.69 8.21v2.78h-18.96v-2.78h18.96Zm-15.06-22.92v1.84h10.57v-1.84h3.65v8.85H281.9v-8.85h3.63Zm0 6.09h10.57v-1.58h-10.57v1.58ZM328.46 129.97v2.93H304.4v-2.93h24.06Zm-2.76-14.94v7.81h-14.73v4h-3.72v-6.77h14.66v-2.08h-14.74v-2.95h18.53Zm.61 10.03v2.93h-19.06v-2.93h19.06Zm-8.09 5.97v9.56h-3.7v-9.56h3.7ZM339.11 118.75c0 1.86-.27 3.58-.8 5.16s-1.34 2.96-2.42 4.13c-1.08 1.18-2.42 2.07-4.01 2.67l-1.99-2.89c1.4-.49 2.56-1.2 3.5-2.13.94-.93 1.63-1.99 2.08-3.17.45-1.18.67-2.44.68-3.78v-3.05h2.96v3.05Zm-.71 13.13v7.04h-3.73v-7.04h3.73Zm14.35 5.21v2.97h-18.08v-2.97h18.08Zm-12.89-18.34c0 1.27.22 2.47.64 3.61a8.796 8.796 0 0 0 1.98 3.07c.89.9 2 1.6 3.34 2.09l-2.05 2.86c-1.5-.59-2.77-1.47-3.8-2.63s-1.79-2.5-2.3-4.04c-.51-1.53-.76-3.19-.75-4.97v-3.05h2.93v3.05Zm9.5-1.1v2.98h-5.35v-2.98h5.35Zm0 5.1v2.96h-5.35v-2.96h5.35Zm2.83-8.51v19.5h-3.68v-19.5h3.68Z"/><path d="M263.34 6.6h-13.63V.14h34.91V6.6h-13.64v34.68h-7.64V6.6Z" style="fill:url(#i)"/><path d="M324.6.14v41.14h-7.65V23.65h-21.28v17.63h-7.64V.14h7.64v16.98h21.28V.14h7.65Z" style="fill:url(#j)"/><path d="M364.15 34.87v6.41h-30.86V.14h30.04v6.4h-22.4v10.7h19.87v6.29h-19.87v11.34h23.22Z" style="fill:url(#k)"/><path class="u" d="M289.56 78.84c1.33 1.74 2 3.91 2 6.49 0 3.56-1.37 6.32-4.12 8.26-2.75 1.94-6.74 2.91-12 2.91h-20.45V55.36h19.28c4.85 0 8.6.95 11.22 2.84 2.63 1.91 3.93 4.52 3.93 7.86 0 2.04-.47 3.84-1.41 5.4-.94 1.57-2.23 2.78-3.88 3.64 2.27.75 4.07 1.99 5.4 3.74Zm-26.92-17.49v11.34h10.82c2.67 0 4.71-.48 6.14-1.44 1.43-.96 2.15-2.36 2.15-4.21s-.72-3.3-2.15-4.26c-1.44-.96-3.48-1.44-6.14-1.44h-10.82Zm21.22 23.22c0-3.95-2.96-5.94-8.88-5.94h-12.34v11.88h12.34c5.92 0 8.88-1.98 8.88-5.94ZM297.38 55.36h7.64v34.68h21.52v6.46h-29.16V55.36ZM334.05 92.29c-3.18-3.19-4.76-7.77-4.76-13.72V55.35h7.64v22.92c0 8.07 3.49 12.1 10.46 12.1s10.4-4.03 10.4-12.1V55.35h7.53v23.22c0 5.95-1.58 10.52-4.74 13.72-3.15 3.19-7.57 4.79-13.25 4.79s-10.11-1.6-13.28-4.79ZM381.64 94.35c-3.36-1.82-5.98-4.34-7.88-7.55-1.9-3.21-2.85-6.84-2.85-10.87s.96-7.66 2.89-10.87c1.92-3.21 4.55-5.73 7.9-7.55 3.36-1.83 7.1-2.73 11.25-2.73 3.38 0 6.45.59 9.23 1.77 2.79 1.17 5.13 2.88 7.06 5.11l-4.94 4.64c-2.99-3.21-6.65-4.82-10.99-4.82-2.82 0-5.35.61-7.58 1.85-2.23 1.23-3.98 2.94-5.23 5.14-1.25 2.19-1.88 4.68-1.88 7.46s.63 5.27 1.88 7.46c1.25 2.19 3 3.91 5.23 5.14 2.23 1.23 4.76 1.85 7.58 1.85 4.35 0 8.01-1.62 10.99-4.88l4.94 4.71c-1.93 2.23-4.28 3.93-7.08 5.11-2.81 1.18-5.89 1.77-9.26 1.77-4.15 0-7.91-.92-11.25-2.73ZM443.99 90.09v6.41h-30.86V55.36h30.04v6.41h-22.4v10.7h19.87v6.29h-19.87V90.1h23.22ZM478.63 86.98h-20.57l-4.05 9.52h-7.88l18.51-41.14h7.53l18.58 41.14h-8l-4.12-9.52Zm-2.53-5.99L468.34 63l-7.69 17.99h15.45ZM530.19 54.04v41.14h-6.3l-22.68-27.86v27.86h-7.58V54.04h6.29l22.69 27.86V54.04h7.58Z"/></svg>